<svg width="50" height="35" viewBox="0 0 50 35" fill="none" xmlns="http://www.w3.org/2000/svg">
<path d="M33.3447 14.04C34.2619 14.7921 35.3057 15.3748 36.4273 15.7607C37.6566 16.1891 38.9506 16.402 40.2523 16.39C41.1322 16.3943 42.0097 16.2986 42.8679 16.1049C43.6744 15.9231 44.4577 15.6509 45.2032 15.2937C45.9073 14.9533 46.5676 14.529 47.1698 14.0301C47.741 13.5566 48.2469 13.0093 48.6743 12.4028C49.0964 11.8166 49.4279 11.1702 49.6576 10.4853C49.884 9.8002 49.9986 9.08303 49.9968 8.36143C49.9989 7.64784 49.8844 6.9387 49.6576 6.2621C49.4275 5.58957 49.0959 4.95621 48.6743 4.384C48.2434 3.79193 47.7378 3.25815 47.1698 2.79598C46.5663 2.30972 45.906 1.89864 45.2032 1.57177C44.4562 1.22314 43.673 0.957697 42.8679 0.780221C41.1426 0.406593 39.3572 0.406593 37.6319 0.780221C36.8299 0.957697 36.05 1.22316 35.3064 1.57177C34.6043 1.89978 33.944 2.31078 33.3398 2.79598C32.7679 3.25547 32.2603 3.78957 31.8304 4.384C31.4121 4.9583 31.0808 5.59113 30.8471 6.2621C30.6203 6.9387 30.5057 7.64784 30.5079 8.36143C30.5029 9.44756 30.761 10.5187 31.2601 11.4834C31.7764 12.4668 32.4854 13.3362 33.3447 14.04ZM34.4017 5.48529C34.6425 4.66219 35.0472 3.89626 35.5915 3.23354C36.1233 2.5955 36.7967 2.09044 37.5581 1.7586C38.4117 1.39264 39.3336 1.21328 40.2622 1.23254C41.181 1.21506 42.093 1.39444 42.9367 1.7586C43.6968 2.09277 44.3697 2.59745 44.9033 3.23354C45.4522 3.89545 45.8619 4.66132 46.1079 5.48529C46.3861 6.41997 46.522 7.3912 46.511 8.36635C46.5219 9.35117 46.386 10.3321 46.1079 11.2769C45.8622 12.1173 45.4528 12.901 44.9033 13.5827C44.3716 14.2319 43.6991 14.7514 42.9367 15.1019C42.0966 15.4796 41.1831 15.666 40.2622 15.6477C39.3316 15.668 38.408 15.4816 37.5581 15.1019C36.7947 14.7532 36.1217 14.2334 35.5915 13.5827C35.0468 12.9001 34.6424 12.1164 34.4017 11.2769C34.1277 10.3313 33.9935 9.35077 34.0035 8.36635C33.9934 7.39161 34.1276 6.42075 34.4017 5.48529Z" fill="#1D1D1B"/>
<path d="M4.73026 16.0351H5.30058V15.8286C5.30058 15.8286 4.73518 15.8728 4.73026 15.5975V9.01435C4.89742 9.04384 5.11375 9.07334 5.37924 9.10284C5.64473 9.13234 5.9348 9.16184 6.24454 9.18642C6.55428 9.211 6.87876 9.22575 7.22783 9.23559H8.21113C8.92308 9.23781 9.63277 9.15529 10.3252 8.98976C10.9789 8.84106 11.6047 8.58877 12.1787 8.24246C12.7051 7.92039 13.1535 7.48547 13.4914 6.96909C13.8295 6.43104 14.0006 5.80487 13.9831 5.16966C13.9999 4.51906 13.8292 3.87734 13.4914 3.32106C13.1321 2.76464 12.6492 2.29861 12.0804 1.9592C11.4295 1.56499 10.7188 1.27938 9.97614 1.11356C9.12487 0.917918 8.25369 0.822219 7.38024 0.828407H1.19531V1.0349C1.19531 1.0349 1.76071 0.99065 1.76563 1.26597V15.5877C1.76563 15.8581 1.19531 15.8138 1.19531 15.8138V16.0203H4.73026V16.0351ZM4.73026 1.96411H6.8296C7.36411 1.96239 7.89538 2.04706 8.40287 2.21485C8.86243 2.36315 9.29075 2.59481 9.66641 2.89824C10.0204 3.187 10.3073 3.54939 10.5071 3.96021C10.7184 4.39318 10.8245 4.86987 10.8169 5.35157C10.819 5.77432 10.7388 6.19345 10.5809 6.5856C10.424 6.96364 10.1817 7.30021 9.8729 7.5689C9.52286 7.87363 9.11481 8.10441 8.67328 8.24737C8.13318 8.41978 7.56854 8.50281 7.00168 8.4932C6.60958 8.49304 6.21818 8.46015 5.83155 8.39487C5.46802 8.3347 5.10847 8.25261 4.75485 8.14904L4.73026 1.96411Z" fill="#1D1D1B"/>
<path d="M19.0989 16.0348H19.6692V15.8283C19.6692 15.8283 19.1088 15.8725 19.0989 15.6021V8.89606H21.1933L27.3193 16.0348H30.7608L24.3694 8.66007C24.9714 8.53242 25.5581 8.34124 26.1197 8.08976C26.6161 7.87365 27.0769 7.58357 27.4864 7.22937C27.8475 6.9174 28.1447 6.5384 28.3616 6.11333C28.5687 5.70151 28.6765 5.24688 28.6762 4.78589C28.6799 4.23015 28.5393 3.68296 28.2682 3.19786C27.9763 2.68695 27.5625 2.25623 27.0636 1.94416C26.4596 1.56058 25.7945 1.28291 25.097 1.12311C24.1856 0.91828 23.2533 0.820928 22.3192 0.833036H15.6328V1.03953C15.6328 1.03953 16.2031 0.99528 16.2031 1.2706V14.1862V15.5923C16.2031 15.8627 15.6328 15.8185 15.6328 15.8185V16.025H19.1678L19.0989 16.0348ZM19.0989 1.777H21.685C22.1858 1.77487 22.6838 1.85288 23.1599 2.00807C23.5899 2.14623 23.9914 2.36111 24.3448 2.6423C24.6713 2.90928 24.9349 3.24503 25.1167 3.6256C25.3002 4.02125 25.3926 4.45303 25.3871 4.88913C25.3947 5.35928 25.2758 5.82282 25.043 6.23133C24.7963 6.63914 24.46 6.98549 24.0597 7.24412C23.6076 7.54007 23.109 7.7578 22.5847 7.88818C21.9852 8.04876 21.3665 8.12651 20.7459 8.11926H19.0301L19.0989 1.777Z" fill="#1D1D1B"/>
<path d="M14.6216 19.1722C14.6216 19.1722 15.187 19.128 15.1919 19.4033V30.7849L3.39237 18.9854H0L1.76993 20.7602V33.7348C1.76993 34.0052 1.19962 33.961 1.19962 33.961V34.1724H3.65786V33.9659C3.65786 33.9659 3.08755 34.0151 3.08755 33.7348V22.1123V22.0533L15.1772 34.1429H16.48V19.4229C16.48 19.1427 17.0503 19.187 17.0503 19.187V18.9805H14.6216V19.1722Z" fill="#1D1D1B"/>
<path d="M48.8693 27.5423C48.4911 27.2092 48.0588 26.9432 47.591 26.7557C47.0498 26.5395 46.483 26.3941 45.9046 26.3231V26.2739C46.4383 26.0605 46.9545 25.8057 47.4484 25.5118C47.8134 25.2999 48.1448 25.0347 48.4317 24.7252C48.6582 24.4603 48.8258 24.1503 48.9234 23.8156C49.0267 23.4495 49.0764 23.0702 49.0709 22.6898C49.0728 22.1515 48.9117 21.6253 48.6087 21.1804C48.2704 20.6944 47.8267 20.2911 47.3108 20.0005C46.688 19.6464 46.0149 19.3894 45.3147 19.2384C44.4736 19.0529 43.6144 18.9622 42.7532 18.968H35.1818V19.1794C35.1818 19.1794 35.7521 19.1302 35.7521 19.4105V32.803C35.1756 32.6865 34.6099 32.522 34.0608 32.3113C33.7634 32.1971 33.4743 32.0624 33.1955 31.9082C33.0235 31.8098 32.8514 31.6968 32.6744 31.5739C32.2086 31.2551 31.7635 30.907 31.342 30.5316C31.7009 30.1333 32.0254 29.7548 32.3253 29.4008C32.6023 29.0516 32.8521 28.6818 33.0726 28.2946C33.2912 27.9076 33.477 27.503 33.6282 27.0851C33.7944 26.6043 33.9227 26.1111 34.0117 25.6102L33.3578 25.4528C33.1594 26.1219 32.8699 26.7604 32.4974 27.3506C31.9427 28.219 31.2821 29.015 30.5308 29.7203C29.7884 29.0025 29.0903 28.2749 28.4462 27.5276C27.8335 26.8263 27.2809 26.0747 26.7943 25.2808C27.3646 25.0448 27.93 24.7891 28.4856 24.558C28.9998 24.3309 29.4933 24.0595 29.9605 23.7468C30.3684 23.4807 30.729 23.1484 31.0274 22.7635C31.3005 22.3828 31.4436 21.9242 31.4354 21.4557C31.4431 20.9912 31.3314 20.5324 31.111 20.1234C30.8946 19.7356 30.5959 19.4 30.2358 19.1401C29.8446 18.8592 29.4069 18.6495 28.9428 18.5206C28.4255 18.3786 27.8912 18.3075 27.3548 18.3092C26.6843 18.2993 26.0177 18.4126 25.3882 18.6435C24.8598 18.8405 24.3753 19.1395 23.9624 19.5236C23.5894 19.8761 23.2975 20.3056 23.1069 20.7822C22.9193 21.2513 22.8225 21.7518 22.8218 22.2571C22.8442 22.7495 22.9541 23.2339 23.1463 23.6878C23.397 24.3242 23.6894 24.9433 24.0214 25.5413C23.3528 25.8216 22.7038 26.1313 22.0548 26.4607C21.4504 26.7768 20.8831 27.1594 20.3635 27.6013C19.8798 28.0171 19.4751 28.5167 19.1688 29.0763C18.857 29.6417 18.6993 30.2792 18.7116 30.9249C18.7067 31.3837 18.7954 31.8387 18.9722 32.2622C19.1446 32.6744 19.4228 33.0339 19.7785 33.3044C20.2028 33.6219 20.6857 33.8525 21.1993 33.9829C21.8872 34.1547 22.5947 34.2357 23.3036 34.2238C24.4217 34.2335 25.5329 34.0489 26.5878 33.6781C27.5789 33.3248 28.5219 32.8492 29.3951 32.2622C30.0756 32.8278 30.8237 33.3067 31.6223 33.6879C32.3116 34.0259 33.0671 34.2072 33.8347 34.2189H43.8791C44.7292 34.2295 45.5766 34.1202 46.3963 33.8944C47.0814 33.7119 47.7311 33.4161 48.3186 33.0193C48.8188 32.6818 49.2372 32.2367 49.5428 31.7164C49.8246 31.2276 49.9722 30.673 49.9706 30.1087C49.9753 29.6295 49.8764 29.1548 49.6805 28.7174C49.5 28.2707 49.223 27.8695 48.8693 27.5423ZM25.4619 20.5806C25.5739 20.2963 25.7317 20.0322 25.929 19.7989C26.1251 19.5673 26.3638 19.3754 26.6321 19.2335C26.908 19.0888 27.2153 19.0145 27.5268 19.0172C27.805 19.0156 28.0807 19.0691 28.3381 19.1745C28.5876 19.2829 28.812 19.442 28.9969 19.6416C29.1902 19.8559 29.3419 20.1043 29.4443 20.3741C29.558 20.6892 29.613 21.0225 29.6065 21.3574C29.6105 21.714 29.5243 22.0658 29.3558 22.38C29.1785 22.7021 28.9455 22.9901 28.6675 23.2306C28.3482 23.5023 28.0022 23.7411 27.635 23.9435C27.2368 24.1647 26.814 24.381 26.3567 24.5875C26.0369 24.0721 25.7747 23.5231 25.575 22.9503C25.3986 22.4644 25.3023 21.9529 25.2898 21.4361C25.2922 21.1426 25.3506 20.8522 25.4619 20.5806ZM26.6812 32.3802C26.06 32.6472 25.3908 32.7843 24.7146 32.7833C24.2456 32.789 23.7794 32.7107 23.338 32.5522C22.9552 32.4159 22.604 32.2035 22.3056 31.9278C22.0257 31.6677 21.8044 31.3509 21.6566 30.9986C21.502 30.6314 21.4234 30.2367 21.4255 29.8383C21.4259 29.4751 21.5047 29.1162 21.6566 28.7862C21.8186 28.428 22.0341 28.0964 22.2957 27.8029C22.5921 27.485 22.9218 27.1999 23.279 26.9524C23.6666 26.6781 24.0742 26.4333 24.4983 26.2198C24.7785 26.6525 25.0686 27.0999 25.3734 27.5522C25.6783 28.0045 25.9929 28.4568 26.3272 28.8944C26.6615 29.3319 27.0057 29.7597 27.3695 30.1825C27.7333 30.6053 28.1168 30.9986 28.5101 31.3723C27.9365 31.7752 27.3238 32.1195 26.6812 32.3998V32.3802ZM38.6823 19.9562H41.1062C41.862 19.9447 42.6168 20.0139 43.3579 20.1627C43.9066 20.2684 44.4325 20.4698 44.9115 20.7576C45.2883 20.9845 45.5986 21.3067 45.8112 21.6917C46.006 22.0649 46.1056 22.4803 46.1013 22.9012C46.1055 23.2976 46.0233 23.6902 45.8604 24.0516C45.6954 24.4081 45.4497 24.7212 45.1426 24.9661C44.7987 25.237 44.4067 25.4405 43.9872 25.5659C43.4792 25.7209 42.95 25.7956 42.4189 25.7872H38.6823V19.9562ZM46.5487 31.2936C46.3305 31.6722 46.0191 31.9887 45.6441 32.213C45.1647 32.5 44.6389 32.7013 44.0905 32.8079C43.3616 32.9615 42.618 33.034 41.8731 33.0242H38.702V26.7459H41.7797C42.5792 26.7307 43.3772 26.8183 44.1544 27.0064C44.7174 27.1457 45.2493 27.3892 45.7227 27.7243C46.0995 27.9989 46.3964 28.3688 46.5831 28.796C46.759 29.2197 46.8476 29.6746 46.8437 30.1333C46.8417 30.5471 46.7333 30.9534 46.529 31.3133L46.5487 31.2936Z" fill="#1D1D1B"/>
</svg>
